<?xml version="1.0" encoding="iso-8859-1"?>
<!-- Generator: Adobe Illustrator 16.0.0, SVG Export Plug-In . SVG Version: 6.00 Build 0)  -->
<!DOCTYPE svg PUBLIC "-//W3C//DTD SVG 1.1//EN" "http://www.w3.org/Graphics/SVG/1.1/DTD/svg11.dtd">
<svg version="1.1" id="Capa_1" xmlns="http://www.w3.org/2000/svg" xmlns:xlink="http://www.w3.org/1999/xlink" x="0px" y="0px"
	 width="976.725px" height="976.725px" viewBox="0 0 976.725 976.725" style="enable-background:new 0 0 976.725 976.725;"
	 xml:space="preserve">
<g>
	<path d="M120.466,916.225c0,33.4,27.1,60.5,60.5,60.5h401.8c33.4,0,60.5-27.1,60.5-60.5v-287h-522.8V916.225z"/>
	<rect x="120.466" y="487.824" width="522.7" height="94.4"/>
	<path d="M725.966,411.324c0-19.3-15.7-35-35-35h-618.2c-19.3,0-35,15.7-35,35c0,19.301,15.7,35,35,35h618.2
		C710.266,446.324,725.966,430.725,725.966,411.324z"/>
	<path d="M938.065,11.625c-4.6-10-16.5-14.4-26.5-9.8l-445.1,204l27,53.6l443.1-203.1c10.101-4.6,14.5-16.5,9.8-26.6L938.065,11.625
		z"/>
	<path d="M297.365,305.425l8.4,18.2c4.6,10,16.5,14.4,26.5,9.8l124.8-57.2l-27-53.6l-122.8,56.2
		C297.166,283.425,292.766,295.325,297.365,305.425z"/>
	<path d="M32.266,236.625l68,29.8c1.5,0.7,2.7,1.9,3.4,3.4l26.2,63.6c2.2,5.3,9.7,5.3,11.8,0l26.2-63.6c0.6-1.5,1.8-2.8,3.4-3.4
		l68-29.8c5.2-2.3,5.1-9.8-0.3-11.9l-68.2-26c-1.6-0.6-3-1.9-3.6-3.5l-25.5-61.3c-2.2-5.3-9.6-5.3-11.8,0l-25.5,61.3
		c-0.7,1.6-2,2.9-3.6,3.5l-68.2,26C27.266,226.825,27.065,234.325,32.266,236.625z"/>
	<path d="M262.166,101.925l42.7,18.7c1,0.4,1.7,1.2,2.101,2.2l16.399,39.9c1.4,3.3,6.101,3.3,7.4,0l16.4-39.9
		c0.399-1,1.1-1.7,2.1-2.2l42.7-18.7c3.3-1.4,3.2-6.2-0.2-7.4l-42.8-16.3c-1-0.4-1.9-1.2-2.3-2.2l-16-38.4c-1.4-3.3-6-3.3-7.4,0
		l-16,38.4c-0.4,1-1.2,1.8-2.3,2.2l-42.8,16.3C258.966,95.725,258.866,100.425,262.166,101.925z"/>
</g>
<g>
</g>
<g>
</g>
<g>
</g>
<g>
</g>
<g>
</g>
<g>
</g>
<g>
</g>
<g>
</g>
<g>
</g>
<g>
</g>
<g>
</g>
<g>
</g>
<g>
</g>
<g>
</g>
<g>
</g>
</svg>
